<?xml version="1.0" encoding="UTF-8"?>
<svg xmlns="http://www.w3.org/2000/svg" width="400" height="300" viewBox="0 0 400 300">
<style>
  text { font-family: sans-serif; font-size: 12px; }
  .title { font-size: 14px; font-weight: bold; }
</style>

<text x="200" y="20" text-anchor="middle" class="title">A5: Static Replay Comparison</text>
<line x1="60" y1="240" x2="60" y2="40" stroke="#333" stroke-width="1"/>
<line x1="60" y1="240" x2="380" y2="240" stroke="#333" stroke-width="1"/>
<text x="52" y="244" text-anchor="end">0.00</text>
<line x1="57" y1="240" x2="60" y2="240" stroke="#ccc" stroke-width="1"/>
<text x="52" y="204" text-anchor="end">0.09</text>
<line x1="57" y1="200" x2="60" y2="200" stroke="#ccc" stroke-width="1"/>
<text x="52" y="164" text-anchor="end">0.18</text>
<line x1="57" y1="160" x2="60" y2="160" stroke="#ccc" stroke-width="1"/>
<text x="52" y="124" text-anchor="end">0.27</text>
<line x1="57" y1="120" x2="60" y2="120" stroke="#ccc" stroke-width="1"/>
<text x="52" y="84" text-anchor="end">0.36</text>
<line x1="57" y1="80" x2="60" y2="80" stroke="#ccc" stroke-width="1"/>
<text x="52" y="44" text-anchor="end">0.45</text>
<line x1="57" y1="40" x2="60" y2="40" stroke="#ccc" stroke-width="1"/>
<rect x="85.0" y="66.71111111111111" width="50.0" height="173.2888888888889" fill="#2ecc71" stroke="none"/>
<text x="110.0" y="58.71111111111111" text-anchor="middle">0.3899</text>
<text x="110.0" y="255" text-anchor="middle">Frozen learned (a)</text>
<rect x="185.0" y="82.93333333333334" width="50.0" height="157.06666666666666" fill="#3498db" stroke="none"/>
<text x="210.0" y="74.93333333333334" text-anchor="middle">0.3534</text>
<text x="210.0" y="255" text-anchor="middle">Continuous GA (b)</text>
<rect x="285.0" y="240.0" width="50.0" height="0.0" fill="#e74c3c" stroke="none"/>
<text x="310.0" y="232.0" text-anchor="middle">0.0000</text>
<text x="310.0" y="255" text-anchor="middle">Fresh random (c)</text>
</svg>