<?xml version="1.0" encoding="UTF-8"?>
<svg xmlns="http://www.w3.org/2000/svg" width="490" height="295" viewBox="0 0 490 295">
<style>
  text { font-family: sans-serif; font-size: 12px; }
  .title { font-size: 14px; font-weight: bold; }
</style>

<text x="245" y="25" text-anchor="middle" class="title">A1: Hyperparameter Sweep (Improvement %)</text>
<text x="90" y="81" text-anchor="end">GA every 1</text>
<text x="90" y="116" text-anchor="end">GA every 2</text>
<text x="90" y="151" text-anchor="end">GA every 5</text>
<text x="90" y="186" text-anchor="end">GA every 10</text>
<text x="90" y="221" text-anchor="end">GA every 20</text>
<text x="135" y="50" text-anchor="middle">mut=0</text>
<text x="205" y="50" text-anchor="middle">mut=1</text>
<text x="275" y="50" text-anchor="middle">mut=2</text>
<text x="345" y="50" text-anchor="middle">mut=4</text>
<text x="415" y="50" text-anchor="middle">mut=8</text>
<rect x="100" y="60" width="68" height="33" fill="rgb(255,255,255)" stroke="#999"/>
<text x="135" y="81" text-anchor="middle">0</text>
<rect x="170" y="60" width="68" height="33" fill="rgb(80,212,168)" stroke="#999"/>
<text x="205" y="81" text-anchor="middle">1379</text>
<rect x="240" y="60" width="68" height="33" fill="rgb(12,195,134)" stroke="#999"/>
<text x="275" y="81" text-anchor="middle">1910</text>
<rect x="310" y="60" width="68" height="33" fill="rgb(59,206,157)" stroke="#999"/>
<text x="345" y="81" text-anchor="middle">1544</text>
<rect x="380" y="60" width="68" height="33" fill="rgb(121,222,188)" stroke="#999"/>
<text x="415" y="81" text-anchor="middle">1056</text>
<rect x="100" y="95" width="68" height="33" fill="rgb(255,255,255)" stroke="#999"/>
<text x="135" y="116" text-anchor="middle">0</text>
<rect x="170" y="95" width="68" height="33" fill="rgb(55,205,155)" stroke="#999"/>
<text x="205" y="116" text-anchor="middle">1572</text>
<rect x="240" y="95" width="68" height="33" fill="rgb(87,213,171)" stroke="#999"/>
<text x="275" y="116" text-anchor="middle">1319</text>
<rect x="310" y="95" width="68" height="33" fill="rgb(89,214,172)" stroke="#999"/>
<text x="345" y="116" text-anchor="middle">1305</text>
<rect x="380" y="95" width="68" height="33" fill="rgb(67,208,161)" stroke="#999"/>
<text x="415" y="116" text-anchor="middle">1481</text>
<rect x="100" y="130" width="68" height="33" fill="rgb(255,255,255)" stroke="#999"/>
<text x="135" y="151" text-anchor="middle">0</text>
<rect x="170" y="130" width="68" height="33" fill="rgb(57,206,156)" stroke="#999"/>
<text x="205" y="151" text-anchor="middle">1557</text>
<rect x="240" y="130" width="68" height="33" fill="rgb(34,200,145)" stroke="#999"/>
<text x="275" y="151" text-anchor="middle">1737</text>
<rect x="310" y="130" width="68" height="33" fill="rgb(96,216,176)" stroke="#999"/>
<text x="345" y="151" text-anchor="middle">1253</text>
<rect x="380" y="130" width="68" height="33" fill="rgb(225,248,240)" stroke="#999"/>
<text x="415" y="151" text-anchor="middle">238</text>
<rect x="100" y="165" width="68" height="33" fill="rgb(255,255,255)" stroke="#999"/>
<text x="135" y="186" text-anchor="middle">0</text>
<rect x="170" y="165" width="68" height="33" fill="rgb(165,233,210)" stroke="#999"/>
<text x="205" y="186" text-anchor="middle">709</text>
<rect x="240" y="165" width="68" height="33" fill="rgb(179,236,217)" stroke="#999"/>
<text x="275" y="186" text-anchor="middle">603</text>
<rect x="310" y="165" width="68" height="33" fill="rgb(211,244,233)" stroke="#999"/>
<text x="345" y="186" text-anchor="middle">348</text>
<rect x="380" y="165" width="68" height="33" fill="rgb(235,250,245)" stroke="#999"/>
<text x="415" y="186" text-anchor="middle">161</text>
<rect x="100" y="200" width="68" height="33" fill="rgb(255,255,255)" stroke="#999"/>
<text x="135" y="221" text-anchor="middle">0</text>
<rect x="170" y="200" width="68" height="33" fill="rgb(251,254,253)" stroke="#999"/>
<text x="205" y="221" text-anchor="middle">31</text>
<rect x="240" y="200" width="68" height="33" fill="rgb(249,254,252)" stroke="#999"/>
<text x="275" y="221" text-anchor="middle">48</text>
<rect x="310" y="200" width="68" height="33" fill="rgb(231,249,243)" stroke="#999"/>
<text x="345" y="221" text-anchor="middle">190</text>
<rect x="380" y="200" width="68" height="33" fill="rgb(247,253,251)" stroke="#999"/>
<text x="415" y="221" text-anchor="middle">68</text>
</svg>